<svg id="visual" viewBox="0 0 900 600" width="900" height="600" xmlns="http://www.w3.org/2000/svg" xmlns:xlink="http://www.w3.org/1999/xlink" version="1.1"><rect x="0" y="0" width="900" height="600" fill="#001220"></rect><g fill="#6d0000"><circle r="14" cx="892" cy="287"></circle><circle r="1" cx="233" cy="435"></circle><circle r="12" cx="267" cy="91"></circle><circle r="7" cx="183" cy="174"></circle><circle r="3" cx="299" cy="28"></circle><circle r="3" cx="847" cy="371"></circle><circle r="10" cx="181" cy="414"></circle><circle r="12" cx="504" cy="541"></circle><circle r="4" cx="570" cy="295"></circle><circle r="2" cx="828" cy="551"></circle><circle r="3" cx="245" cy="56"></circle><circle r="9" cx="245" cy="269"></circle><circle r="6" cx="811" cy="250"></circle><circle r="10" cx="93" cy="208"></circle><circle r="9" cx="648" cy="237"></circle><circle r="2" cx="103" cy="436"></circle><circle r="10" cx="5" cy="146"></circle><circle r="5" cx="767" cy="483"></circle><circle r="0" cx="303" cy="181"></circle><circle r="9" cx="173" cy="144"></circle><circle r="10" cx="788" cy="578"></circle><circle r="11" cx="652" cy="437"></circle><circle r="12" cx="77" cy="424"></circle><circle r="1" cx="508" cy="81"></circle><circle r="10" cx="573" cy="597"></circle><circle r="9" cx="232" cy="88"></circle><circle r="10" cx="356" cy="221"></circle><circle r="10" cx="105" cy="107"></circle><circle r="5" cx="343" cy="447"></circle><circle r="7" cx="20" cy="316"></circle><circle r="2" cx="604" cy="78"></circle><circle r="3" cx="345" cy="335"></circle><circle r="4" cx="671" cy="543"></circle><circle r="0" cx="732" cy="504"></circle><circle r="9" cx="680" cy="357"></circle><circle r="3" cx="473" cy="360"></circle><circle r="6" cx="50" cy="240"></circle><circle r="9" cx="807" cy="393"></circle><circle r="1" cx="289" cy="588"></circle><circle r="7" cx="495" cy="142"></circle><circle r="6" cx="812" cy="123"></circle><circle r="11" cx="711" cy="210"></circle><circle r="2" cx="311" cy="511"></circle><circle r="7" cx="329" cy="157"></circle><circle r="6" cx="181" cy="289"></circle><circle r="3" cx="282" cy="474"></circle><circle r="4" cx="753" cy="56"></circle><circle r="6" cx="764" cy="85"></circle><circle r="1" cx="582" cy="561"></circle><circle r="11" cx="299" cy="81"></circle><circle r="8" cx="604" cy="117"></circle><circle r="3" cx="879" cy="497"></circle><circle r="4" cx="15" cy="371"></circle><circle r="9" cx="570" cy="223"></circle><circle r="0" cx="277" cy="159"></circle><circle r="1" cx="532" cy="336"></circle><circle r="2" cx="327" cy="98"></circle><circle r="10" cx="306" cy="289"></circle><circle r="5" cx="552" cy="198"></circle><circle r="7" cx="139" cy="26"></circle><circle r="11" cx="549" cy="396"></circle><circle r="2" cx="492" cy="15"></circle><circle r="12" cx="781" cy="60"></circle><circle r="4" cx="783" cy="297"></circle><circle r="1" cx="141" cy="564"></circle><circle r="0" cx="432" cy="305"></circle><circle r="11" cx="482" cy="576"></circle><circle r="1" cx="739" cy="413"></circle><circle r="1" cx="87" cy="144"></circle><circle r="6" cx="591" cy="52"></circle><circle r="1" cx="108" cy="12"></circle><circle r="12" cx="412" cy="168"></circle><circle r="4" cx="419" cy="200"></circle><circle r="8" cx="139" cy="188"></circle><circle r="9" cx="779" cy="337"></circle><circle r="0" cx="861" cy="246"></circle><circle r="4" cx="332" cy="31"></circle><circle r="9" cx="136" cy="461"></circle><circle r="5" cx="109" cy="309"></circle><circle r="6" cx="237" cy="525"></circle><circle r="1" cx="608" cy="469"></circle><circle r="2" cx="613" cy="533"></circle><circle r="11" cx="146" cy="72"></circle><circle r="9" cx="318" cy="407"></circle><circle r="0" cx="409" cy="321"></circle><circle r="6" cx="685" cy="55"></circle><circle r="9" cx="262" cy="569"></circle><circle r="10" cx="830" cy="482"></circle><circle r="9" cx="204" cy="478"></circle><circle r="4" cx="884" cy="108"></circle><circle r="9" cx="713" cy="83"></circle><circle r="11" cx="456" cy="45"></circle><circle r="8" cx="839" cy="153"></circle><circle r="3" cx="500" cy="189"></circle><circle r="2" cx="154" cy="224"></circle><circle r="6" cx="22" cy="535"></circle><circle r="0" cx="61" cy="171"></circle><circle r="4" cx="16" cy="503"></circle><circle r="1" cx="646" cy="494"></circle><circle r="2" cx="316" cy="573"></circle><circle r="0" cx="620" cy="213"></circle><circle r="6" cx="39" cy="22"></circle><circle r="11" cx="262" cy="317"></circle><circle r="2" cx="615" cy="272"></circle><circle r="5" cx="583" cy="22"></circle><circle r="6" cx="574" cy="255"></circle><circle r="9" cx="794" cy="271"></circle><circle r="3" cx="79" cy="485"></circle><circle r="2" cx="364" cy="409"></circle><circle r="0" cx="84" cy="252"></circle><circle r="10" cx="675" cy="325"></circle><circle r="10" cx="27" cy="187"></circle><circle r="2" cx="386" cy="372"></circle><circle r="6" cx="861" cy="3"></circle><circle r="11" cx="387" cy="568"></circle><circle r="3" cx="407" cy="529"></circle><circle r="12" cx="611" cy="3"></circle><circle r="12" cx="505" cy="259"></circle><circle r="11" cx="640" cy="40"></circle><circle r="3" cx="787" cy="196"></circle><circle r="8" cx="781" cy="399"></circle><circle r="3" cx="639" cy="77"></circle><circle r="4" cx="322" cy="547"></circle><circle r="6" cx="373" cy="98"></circle><circle r="1" cx="427" cy="577"></circle><circle r="3" cx="762" cy="115"></circle><circle r="0" cx="610" cy="143"></circle><circle r="7" cx="507" cy="369"></circle><circle r="6" cx="691" cy="499"></circle><circle r="2" cx="853" cy="178"></circle><circle r="5" cx="398" cy="454"></circle><circle r="11" cx="865" cy="302"></circle><circle r="8" cx="828" cy="446"></circle><circle r="0" cx="454" cy="74"></circle><circle r="8" cx="549" cy="518"></circle><circle r="0" cx="528" cy="553"></circle><circle r="5" cx="757" cy="521"></circle><circle r="1" cx="218" cy="202"></circle><circle r="7" cx="672" cy="164"></circle><circle r="11" cx="240" cy="117"></circle><circle r="6" cx="225" cy="563"></circle><circle r="12" cx="181" cy="249"></circle><circle r="0" cx="894" cy="597"></circle><circle r="1" cx="676" cy="248"></circle><circle r="2" cx="3" cy="43"></circle><circle r="2" cx="833" cy="281"></circle><circle r="8" cx="711" cy="591"></circle><circle r="0" cx="238" cy="370"></circle><circle r="12" cx="467" cy="171"></circle><circle r="3" cx="392" cy="486"></circle><circle r="1" cx="438" cy="336"></circle><circle r="2" cx="533" cy="8"></circle><circle r="5" cx="595" cy="376"></circle><circle r="3" cx="665" cy="579"></circle><circle r="8" cx="331" cy="185"></circle><circle r="8" cx="826" cy="319"></circle><circle r="0" cx="110" cy="354"></circle><circle r="6" cx="490" cy="477"></circle><circle r="3" cx="204" cy="131"></circle><circle r="2" cx="787" cy="5"></circle><circle r="8" cx="171" cy="595"></circle><circle r="2" cx="251" cy="142"></circle><circle r="4" cx="721" cy="322"></circle><circle r="3" cx="453" cy="229"></circle><circle r="7" cx="364" cy="125"></circle><circle r="6" cx="243" cy="181"></circle><circle r="3" cx="752" cy="585"></circle><circle r="1" cx="543" cy="366"></circle><circle r="11" cx="534" cy="139"></circle><circle r="12" cx="213" cy="55"></circle><circle r="3" cx="393" cy="268"></circle><circle r="9" cx="365" cy="485"></circle><circle r="3" cx="890" cy="138"></circle><circle r="11" cx="295" cy="326"></circle><circle r="8" cx="66" cy="116"></circle><circle r="1" cx="450" cy="538"></circle><circle r="0" cx="300" cy="224"></circle><circle r="12" cx="28" cy="407"></circle><circle r="1" cx="781" cy="240"></circle><circle r="4" cx="692" cy="420"></circle><circle r="9" cx="17" cy="252"></circle><circle r="2" cx="9" cy="3"></circle><circle r="8" cx="493" cy="448"></circle><circle r="10" cx="727" cy="148"></circle><circle r="5" cx="829" cy="192"></circle><circle r="3" cx="251" cy="412"></circle><circle r="2" cx="700" cy="138"></circle><circle r="5" cx="21" cy="459"></circle><circle r="9" cx="165" cy="51"></circle><circle r="11" cx="399" cy="131"></circle><circle r="5" cx="478" cy="422"></circle><circle r="9" cx="884" cy="40"></circle><circle r="11" cx="735" cy="247"></circle><circle r="11" cx="415" cy="396"></circle><circle r="9" cx="206" cy="514"></circle><circle r="2" cx="786" cy="431"></circle><circle r="6" cx="17" cy="572"></circle><circle r="6" cx="875" cy="449"></circle><circle r="5" cx="482" cy="328"></circle><circle r="5" cx="173" cy="483"></circle><circle r="7" cx="198" cy="315"></circle><circle r="11" cx="336" cy="377"></circle><circle r="1" cx="9" cy="88"></circle><circle r="8" cx="175" cy="443"></circle><circle r="6" cx="497" cy="505"></circle><circle r="5" cx="177" cy="117"></circle><circle r="4" cx="72" cy="521"></circle><circle r="2" cx="284" cy="508"></circle><circle r="6" cx="889" cy="371"></circle><circle r="11" cx="204" cy="441"></circle><circle r="8" cx="135" cy="395"></circle><circle r="9" cx="469" cy="296"></circle><circle r="2" cx="528" cy="481"></circle><circle r="6" cx="86" cy="338"></circle><circle r="7" cx="112" cy="64"></circle><circle r="2" cx="325" cy="3"></circle><circle r="6" cx="157" cy="267"></circle><circle r="2" cx="125" cy="214"></circle><circle r="8" cx="183" cy="76"></circle><circle r="6" cx="776" cy="149"></circle><circle r="4" cx="47" cy="550"></circle><circle r="5" cx="166" cy="338"></circle><circle r="1" cx="562" cy="99"></circle><circle r="0" cx="633" cy="559"></circle><circle r="11" cx="585" cy="408"></circle><circle r="2" cx="140" cy="299"></circle><circle r="2" cx="876" cy="531"></circle><circle r="2" cx="850" cy="35"></circle><circle r="6" cx="898" cy="548"></circle><circle r="12" cx="454" cy="8"></circle><circle r="1" cx="237" cy="484"></circle><circle r="7" cx="109" cy="505"></circle><circle r="1" cx="379" cy="518"></circle><circle r="3" cx="42" cy="477"></circle><circle r="12" cx="174" cy="549"></circle><circle r="1" cx="356" cy="3"></circle><circle r="6" cx="359" cy="178"></circle><circle r="11" cx="147" cy="366"></circle><circle r="1" cx="588" cy="512"></circle><circle r="6" cx="520" cy="396"></circle><circle r="12" cx="815" cy="504"></circle><circle r="10" cx="785" cy="369"></circle><circle r="3" cx="422" cy="362"></circle><circle r="11" cx="867" cy="556"></circle><circle r="1" cx="708" cy="473"></circle><circle r="8" cx="487" cy="44"></circle><circle r="5" cx="614" cy="331"></circle><circle r="5" cx="464" cy="202"></circle><circle r="11" cx="42" cy="371"></circle><circle r="7" cx="834" cy="235"></circle><circle r="2" cx="296" cy="115"></circle><circle r="11" cx="467" cy="125"></circle><circle r="12" cx="169" cy="21"></circle><circle r="4" cx="597" cy="300"></circle><circle r="1" cx="225" cy="337"></circle><circle r="6" cx="73" cy="385"></circle><circle r="6" cx="73" cy="295"></circle><circle r="3" cx="863" cy="592"></circle><circle r="2" cx="512" cy="308"></circle><circle r="10" cx="894" cy="415"></circle><circle r="4" cx="861" cy="330"></circle><circle r="3" cx="809" cy="63"></circle><circle r="9" cx="140" cy="330"></circle><circle r="6" cx="229" cy="15"></circle><circle r="6" cx="434" cy="121"></circle><circle r="2" cx="310" cy="473"></circle><circle r="5" cx="666" cy="408"></circle><circle r="3" cx="13" cy="115"></circle><circle r="8" cx="272" cy="249"></circle><circle r="7" cx="547" cy="437"></circle><circle r="7" cx="629" cy="412"></circle><circle r="6" cx="346" cy="513"></circle><circle r="3" cx="422" cy="52"></circle><circle r="10" cx="360" cy="264"></circle><circle r="1" cx="363" cy="542"></circle><circle r="7" cx="292" cy="374"></circle><circle r="4" cx="310" cy="56"></circle><circle r="11" cx="852" cy="408"></circle><circle r="12" cx="441" cy="421"></circle><circle r="12" cx="79" cy="559"></circle><circle r="8" cx="578" cy="336"></circle><circle r="0" cx="36" cy="591"></circle><circle r="10" cx="3" cy="286"></circle><circle r="2" cx="555" cy="543"></circle><circle r="3" cx="526" cy="62"></circle><circle r="11" cx="450" cy="387"></circle><circle r="9" cx="751" cy="26"></circle><circle r="6" cx="712" cy="362"></circle><circle r="0" cx="371" cy="306"></circle><circle r="11" cx="589" cy="164"></circle><circle r="3" cx="376" cy="340"></circle><circle r="12" cx="760" cy="183"></circle><circle r="4" cx="66" cy="62"></circle><circle r="11" cx="380" cy="45"></circle><circle r="10" cx="664" cy="20"></circle><circle r="12" cx="269" cy="210"></circle><circle r="10" cx="842" cy="523"></circle><circle r="1" cx="731" cy="563"></circle><circle r="5" cx="664" cy="470"></circle><circle r="2" cx="648" cy="145"></circle><circle r="12" cx="402" cy="595"></circle><circle r="7" cx="642" cy="367"></circle><circle r="7" cx="138" cy="133"></circle><circle r="5" cx="63" cy="457"></circle><circle r="3" cx="207" cy="263"></circle><circle r="12" cx="102" cy="407"></circle><circle r="7" cx="170" cy="380"></circle><circle r="3" cx="594" cy="437"></circle><circle r="2" cx="548" cy="313"></circle><circle r="5" cx="569" cy="134"></circle><circle r="10" cx="230" cy="237"></circle><circle r="9" cx="191" cy="224"></circle><circle r="10" cx="295" cy="434"></circle><circle r="10" cx="694" cy="26"></circle><circle r="8" cx="864" cy="131"></circle><circle r="3" cx="828" cy="9"></circle><circle r="1" cx="786" cy="532"></circle><circle r="7" cx="198" cy="348"></circle><circle r="12" cx="828" cy="98"></circle><circle r="5" cx="533" cy="244"></circle><circle r="11" cx="490" cy="222"></circle><circle r="10" cx="464" cy="490"></circle><circle r="12" cx="147" cy="103"></circle><circle r="11" cx="37" cy="279"></circle><circle r="9" cx="561" cy="464"></circle><circle r="1" cx="642" cy="289"></circle><circle r="12" cx="149" cy="421"></circle><circle r="9" cx="558" cy="572"></circle><circle r="7" cx="713" cy="397"></circle><circle r="2" cx="889" cy="2"></circle><circle r="8" cx="625" cy="182"></circle><circle r="2" cx="597" cy="239"></circle><circle r="2" cx="858" cy="85"></circle><circle r="2" cx="648" cy="318"></circle><circle r="11" cx="748" cy="378"></circle><circle r="3" cx="589" cy="191"></circle><circle r="9" cx="104" cy="570"></circle><circle r="7" cx="621" cy="592"></circle><circle r="10" cx="685" cy="90"></circle><circle r="8" cx="382" cy="72"></circle><circle r="0" cx="345" cy="569"></circle><circle r="5" cx="91" cy="42"></circle><circle r="3" cx="148" cy="515"></circle><circle r="2" cx="673" cy="190"></circle><circle r="5" cx="470" cy="264"></circle><circle r="9" cx="285" cy="539"></circle><circle r="8" cx="361" cy="365"></circle><circle r="6" cx="66" cy="13"></circle><circle r="2" cx="894" cy="228"></circle><circle r="7" cx="269" cy="29"></circle><circle r="8" cx="51" cy="209"></circle><circle r="8" cx="419" cy="500"></circle><circle r="9" cx="57" cy="319"></circle><circle r="3" cx="729" cy="536"></circle><circle r="3" cx="418" cy="437"></circle><circle r="5" cx="704" cy="172"></circle><circle r="2" cx="687" cy="278"></circle><circle r="10" cx="127" cy="164"></circle><circle r="2" cx="202" cy="548"></circle><circle r="6" cx="691" cy="381"></circle><circle r="5" cx="330" cy="234"></circle><circle r="7" cx="221" cy="160"></circle><circle r="5" cx="117" cy="594"></circle><circle r="12" cx="488" cy="392"></circle><circle r="1" cx="721" cy="44"></circle><circle r="4" cx="369" cy="455"></circle><circle r="11" cx="28" cy="60"></circle><circle r="7" cx="104" cy="534"></circle><circle r="5" cx="720" cy="444"></circle><circle r="2" cx="463" cy="460"></circle><circle r="4" cx="412" cy="246"></circle><circle r="2" cx="534" cy="101"></circle><circle r="10" cx="732" cy="3"></circle><circle r="1" cx="417" cy="3"></circle><circle r="9" cx="711" cy="265"></circle><circle r="0" cx="526" cy="280"></circle><circle r="10" cx="848" cy="462"></circle><circle r="8" cx="261" cy="346"></circle><circle r="0" cx="252" cy="456"></circle><circle r="4" cx="563" cy="58"></circle><circle r="1" cx="639" cy="12"></circle><circle r="9" cx="862" cy="206"></circle><circle r="8" cx="348" cy="70"></circle><circle r="12" cx="48" cy="425"></circle><circle r="5" cx="417" cy="84"></circle><circle r="1" cx="389" cy="17"></circle><circle r="1" cx="709" cy="112"></circle><circle r="0" cx="795" cy="101"></circle><circle r="3" cx="43" cy="140"></circle><circle r="11" cx="811" cy="350"></circle><circle r="4" cx="303" cy="261"></circle><circle r="6" cx="328" cy="310"></circle><circle r="7" cx="236" cy="299"></circle><circle r="2" cx="91" cy="176"></circle><circle r="0" cx="520" cy="588"></circle><circle r="0" cx="460" cy="598"></circle><circle r="8" cx="205" cy="384"></circle><circle r="0" cx="887" cy="169"></circle><circle r="6" cx="651" cy="208"></circle><circle r="0" cx="121" cy="243"></circle><circle r="9" cx="754" cy="347"></circle><circle r="11" cx="818" cy="419"></circle><circle r="7" cx="896" cy="473"></circle><circle r="6" cx="477" cy="536"></circle><circle r="0" cx="809" cy="151"></circle><circle r="7" cx="808" cy="28"></circle><circle r="12" cx="457" cy="568"></circle><circle r="7" cx="391" cy="426"></circle><circle r="7" cx="427" cy="279"></circle><circle r="2" cx="331" cy="273"></circle><circle r="6" cx="40" cy="100"></circle><circle r="2" cx="623" cy="442"></circle><circle r="3" cx="756" cy="285"></circle><circle r="10" cx="740" cy="476"></circle><circle r="3" cx="383" cy="213"></circle><circle r="1" cx="234" cy="590"></circle><circle r="0" cx="365" cy="590"></circle><circle r="5" cx="808" cy="224"></circle><circle r="2" cx="764" cy="260"></circle><circle r="7" cx="657" cy="116"></circle><circle r="8" cx="130" cy="488"></circle><circle r="4" cx="894" cy="78"></circle><circle r="7" cx="1" cy="200"></circle><circle r="5" cx="333" cy="595"></circle><circle r="8" cx="518" cy="438"></circle><circle r="9" cx="315" cy="355"></circle><circle r="10" cx="431" cy="25"></circle><circle r="1" cx="893" cy="200"></circle><circle r="2" cx="514" cy="163"></circle><circle r="0" cx="97" cy="283"></circle><circle r="12" cx="261" cy="291"></circle><circle r="7" cx="725" cy="294"></circle><circle r="12" cx="26" cy="222"></circle><circle r="1" cx="525" cy="205"></circle><circle r="11" cx="89" cy="81"></circle><circle r="12" cx="825" cy="592"></circle><circle r="6" cx="572" cy="487"></circle><circle r="11" cx="661" cy="271"></circle><circle r="6" cx="201" cy="591"></circle><circle r="5" cx="699" cy="338"></circle><circle r="6" cx="552" cy="27"></circle><circle r="11" cx="893" cy="256"></circle><circle r="11" cx="129" cy="270"></circle><circle r="3" cx="441" cy="165"></circle><circle r="1" cx="771" cy="557"></circle><circle r="3" cx="680" cy="217"></circle><circle r="0" cx="144" cy="594"></circle><circle r="3" cx="701" cy="531"></circle><circle r="5" cx="3" cy="422"></circle><circle r="3" cx="766" cy="448"></circle><circle r="12" cx="276" cy="3"></circle><circle r="4" cx="227" cy="399"></circle><circle r="7" cx="425" cy="465"></circle><circle r="8" cx="110" cy="469"></circle><circle r="3" cx="899" cy="341"></circle><circle r="5" cx="640" cy="525"></circle><circle r="10" cx="313" cy="136"></circle><circle r="10" cx="760" cy="314"></circle><circle r="1" cx="555" cy="161"></circle><circle r="5" cx="63" cy="588"></circle><circle r="8" cx="862" cy="58"></circle><circle r="4" cx="269" cy="386"></circle><circle r="9" cx="792" cy="456"></circle><circle r="9" cx="747" cy="207"></circle><circle r="10" cx="271" cy="57"></circle><circle r="11" cx="6" cy="340"></circle><circle r="6" cx="200" cy="12"></circle><circle r="5" cx="382" cy="156"></circle><circle r="8" cx="205" cy="102"></circle><circle r="2" cx="740" cy="95"></circle><circle r="4" cx="731" cy="182"></circle><circle r="11" cx="620" cy="506"></circle><circle r="9" cx="40" cy="342"></circle><circle r="1" cx="340" cy="421"></circle><circle r="5" cx="698" cy="307"></circle><circle r="6" cx="898" cy="314"></circle><circle r="2" cx="570" cy="366"></circle><circle r="2" cx="443" cy="258"></circle><circle r="9" cx="552" cy="271"></circle><circle r="8" cx="666" cy="513"></circle><circle r="8" cx="629" cy="105"></circle><circle r="4" cx="470" cy="95"></circle><circle r="9" cx="44" cy="504"></circle><circle r="4" cx="685" cy="599"></circle><circle r="10" cx="494" cy="110"></circle><circle r="3" cx="851" cy="498"></circle><circle r="11" cx="521" cy="520"></circle><circle r="11" cx="444" cy="512"></circle><circle r="7" cx="681" cy="446"></circle><circle r="0" cx="696" cy="567"></circle><circle r="8" cx="165" cy="195"></circle><circle r="0" cx="290" cy="406"></circle><circle r="11" cx="267" cy="119"></circle><circle r="0" cx="613" cy="34"></circle><circle r="8" cx="337" cy="473"></circle><circle r="7" cx="659" cy="59"></circle><circle r="2" cx="668" cy="297"></circle><circle r="10" cx="778" cy="33"></circle><circle r="2" cx="130" cy="535"></circle><circle r="12" cx="800" cy="319"></circle><circle r="2" cx="224" cy="460"></circle><circle r="0" cx="154" cy="162"></circle><circle r="5" cx="111" cy="382"></circle><circle r="7" cx="596" cy="583"></circle><circle r="5" cx="787" cy="504"></circle><circle r="1" cx="399" cy="104"></circle><circle r="1" cx="481" cy="70"></circle><circle r="12" cx="178" cy="522"></circle><circle r="12" cx="858" cy="272"></circle><circle r="5" cx="835" cy="61"></circle><circle r="8" cx="73" cy="226"></circle><circle r="0" cx="259" cy="498"></circle><circle r="6" cx="562" cy="2"></circle><circle r="7" cx="386" cy="186"></circle><circle r="6" cx="1" cy="394"></circle><circle r="0" cx="735" cy="122"></circle><circle r="3" cx="708" cy="239"></circle><circle r="10" cx="211" cy="291"></circle><circle r="11" cx="125" cy="88"></circle><circle r="7" cx="164" cy="311"></circle><circle r="12" cx="634" cy="470"></circle><circle r="2" cx="337" cy="125"></circle><circle r="4" cx="403" cy="295"></circle><circle r="6" cx="150" cy="2"></circle><circle r="0" cx="505" cy="342"></circle><circle r="8" cx="70" cy="358"></circle><circle r="3" cx="623" cy="386"></circle><circle r="11" cx="2" cy="595"></circle><circle r="1" cx="192" cy="37"></circle><circle r="3" cx="425" cy="550"></circle><circle r="10" cx="802" cy="553"></circle><circle r="8" cx="384" cy="240"></circle><circle r="1" cx="622" cy="247"></circle><circle r="0" cx="88" cy="598"></circle><circle r="2" cx="874" cy="392"></circle></g></svg>